<svg xmlns="http://www.w3.org/2000/svg" width="30" height="35" viewBox="0 0 30 35">
  <g fill="none" fill-rule="evenodd" stroke-width="1.8" transform="translate(1 1)">
    <path stroke="#060606" stroke-linecap="round" stroke-linejoin="round" d="M23.026 32.765H4.692c-2.59 0-4.692-2.1-4.692-4.692V17.14a4.693 4.693 0 0 1 4.692-4.692h18.334a4.692 4.692 0 0 1 4.692 4.692v10.933c0 2.592-2.1 4.692-4.692 4.692z"/>
    <circle cx="13.895" cy="20.842" r="2.605" stroke="#006AFF"/>
    <path stroke="#006AFF" stroke-linecap="square" d="M13.895 23.447v3.474"/>
    <path stroke="#060606" stroke-linecap="round" stroke-linejoin="round" d="M5.006 12.448V8.853A8.852 8.852 0 0 1 13.86 0a8.852 8.852 0 0 1 8.853 8.853v3.595"/>
  </g>
</svg>
